note_on channel=0 note=45 velocity=100 time=0
note_on channel=1 note=60 velocity=90 time=0.4044115625
program_change channel=1 program=24 time=0
control_change channel=1 control=10 value=89 time=0
control_change channel=1 control=7 value=90 time=0
note_off channel=0 note=45 velocity=0 time=0
note_off channel=1 note=60 velocity=0 time=0.4044115625
note_on channel=1 note=64 velocity=90 time=0
note_off channel=1 note=64 velocity=0 time=0.4044115625
note_on channel=1 note=69 velocity=90 time=0
note_off channel=1 note=69 velocity=0 time=0.4044115625
note_on channel=1 note=71 velocity=90 time=0
note_off channel=1 note=71 velocity=0 time=0.4044115625
note_on channel=1 note=64 velocity=90 time=0
note_off channel=1 note=64 velocity=0 time=0.4044115625
note_on channel=1 note=60 velocity=90 time=0
note_off channel=1 note=60 velocity=0 time=0.4044115625
note_on channel=1 note=71 velocity=90 time=0
note_off channel=1 note=71 velocity=0 time=0.4044115625
note_on channel=1 note=72 velocity=90 time=0
note_off channel=1 note=72 velocity=0 time=0.4044115625
note_on channel=1 note=64 velocity=90 time=0
note_off channel=1 note=64 velocity=0 time=0.4044115625
note_on channel=1 note=60 velocity=90 time=0
note_off channel=1 note=60 velocity=0 time=0.4044115625
note_on channel=1 note=72 velocity=90 time=0
note_off channel=1 note=72 velocity=0 time=0.4044115625
note_on channel=1 note=66 velocity=90 time=0
note_off channel=1 note=66 velocity=0 time=0.4044115625
note_on channel=1 note=62 velocity=90 time=0
note_off channel=1 note=62 velocity=0 time=0.4044115625
note_on channel=1 note=57 velocity=90 time=0
note_off channel=1 note=57 velocity=0 time=0.4044115625
note_on channel=1 note=66 velocity=90 time=0
note_off channel=1 note=66 velocity=0 time=0.4044115625
note_on channel=1 note=64 velocity=90 time=0
note_off channel=1 note=64 velocity=0 time=0.4044115625
note_on channel=1 note=60 velocity=90 time=0
note_off channel=1 note=60 velocity=0 time=0.4044115625
note_on channel=1 note=57 velocity=90 time=0
note_off channel=1 note=57 velocity=0 time=0.4044115625
note_on channel=1 note=60 velocity=90 time=0
note_off channel=1 note=60 velocity=0 time=0.808823125
note_on channel=1 note=64 velocity=90 time=0
note_off channel=1 note=64 velocity=0 time=0.4044115625
note_on channel=1 note=60 velocity=90 time=0
note_off channel=1 note=60 velocity=0 time=0.4044115625
note_on channel=1 note=57 velocity=90 time=0
note_off channel=1 note=57 velocity=0 time=0.4044115625
note_on channel=1 note=55 velocity=90 time=0
note_off channel=1 note=55 velocity=0 time=0.4044115625
note_on channel=1 note=57 velocity=90 time=0
note_off channel=1 note=57 velocity=0 time=0.4044115625
note_on channel=1 note=57 velocity=90 time=0
note_off channel=1 note=57 velocity=0 time=1.2132346875
note_on channel=1 note=45 velocity=90 time=0
note_off channel=1 note=45 velocity=0 time=0.37499981250000003
note_on channel=1 note=53 velocity=90 time=0
note_off channel=1 note=53 velocity=0 time=0.4044115625
note_on channel=1 note=52 velocity=90 time=0
note_off channel=1 note=52 velocity=0 time=0.4044115625
note_on channel=1 note=45 velocity=90 time=0
program_change channel=1 program=24 time=0.39338215625
control_change channel=1 control=10 value=89 time=0
control_change channel=1 control=7 value=90 time=0
note_off channel=1 note=45 velocity=0 time=0.01102940625
note_on channel=1 note=60 velocity=90 time=0
note_off channel=1 note=60 velocity=0 time=0.4044115625
note_on channel=1 note=64 velocity=90 time=0
note_off channel=1 note=64 velocity=0 time=0.4044115625
note_on channel=1 note=69 velocity=90 time=0
note_off channel=1 note=69 velocity=0 time=0.4044115625
note_on channel=1 note=71 velocity=90 time=0
note_off channel=1 note=71 velocity=0 time=0.4044115625
note_on channel=1 note=64 velocity=90 time=0
note_off channel=1 note=64 velocity=0 time=0.4044115625
note_on channel=1 note=60 velocity=90 time=0
note_off channel=1 note=60 velocity=0 time=0.4044115625
note_on channel=1 note=71 velocity=90 time=0
note_off channel=1 note=71 velocity=0 time=0.4044115625
note_on channel=1 note=72 velocity=90 time=0
note_off channel=1 note=72 velocity=0 time=0.4044115625
note_on channel=1 note=64 velocity=90 time=0
note_off channel=1 note=64 velocity=0 time=0.4044115625
note_on channel=1 note=60 velocity=90 time=0
note_off channel=1 note=60 velocity=0 time=0.4044115625
note_on channel=1 note=72 velocity=90 time=0
note_off channel=1 note=72 velocity=0 time=0.4044115625
note_on channel=1 note=66 velocity=90 time=0
note_off channel=1 note=66 velocity=0 time=0.4044115625
note_on channel=1 note=62 velocity=90 time=0
note_off channel=1 note=62 velocity=0 time=0.4044115625
note_on channel=1 note=57 velocity=90 time=0
note_off channel=1 note=57 velocity=0 time=0.4044115625
note_on channel=1 note=66 velocity=90 time=0
note_off channel=1 note=66 velocity=0 time=0.4044115625
note_on channel=1 note=64 velocity=90 time=0
note_off channel=1 note=64 velocity=0 time=0.4044115625
note_on channel=1 note=60 velocity=90 time=0
note_off channel=1 note=60 velocity=0 time=0.4044115625
note_on channel=1 note=57 velocity=90 time=0
note_off channel=1 note=57 velocity=0 time=0.4044115625
note_on channel=1 note=60 velocity=90 time=0
note_off channel=1 note=60 velocity=0 time=0.808823125
note_on channel=1 note=64 velocity=90 time=0
note_off channel=1 note=64 velocity=0 time=0.4044115625
note_on channel=1 note=60 velocity=90 time=0
note_off channel=1 note=60 velocity=0 time=0.4044115625
note_on channel=1 note=57 velocity=90 time=0
note_off channel=1 note=57 velocity=0 time=0.4044115625
note_on channel=1 note=55 velocity=90 time=0
note_off channel=1 note=55 velocity=0 time=0.4044115625
note_on channel=1 note=57 velocity=90 time=0
note_off channel=1 note=57 velocity=0 time=0.4044115625
note_on channel=1 note=57 velocity=90 time=0
note_off channel=1 note=57 velocity=0 time=1.2132346875
note_on channel=1 note=45 velocity=90 time=0
note_off channel=1 note=45 velocity=0 time=0.4044115625
note_on channel=1 note=47 velocity=90 time=0
note_off channel=1 note=47 velocity=0 time=0.4044115625
note_on channel=1 note=48 velocity=90 time=0
note_off channel=1 note=48 velocity=0 time=0.4044115625
note_on channel=1 note=52 velocity=90 time=0
note_off channel=1 note=52 velocity=0 time=0.4044115625
note_on channel=1 note=55 velocity=90 time=0
note_off channel=1 note=55 velocity=0 time=0.4044115625
note_on channel=1 note=64 velocity=90 time=0
note_off channel=1 note=64 velocity=0 time=0.4044115625
note_on channel=1 note=66 velocity=90 time=0
note_off channel=1 note=66 velocity=0 time=0.4044115625
note_on channel=1 note=62 velocity=90 time=0
note_off channel=1 note=62 velocity=0 time=0.4044115625
note_on channel=1 note=57 velocity=90 time=0
note_off channel=1 note=57 velocity=0 time=0.4044115625
note_on channel=1 note=66 velocity=90 time=0
note_off channel=1 note=66 velocity=0 time=0.4044115625
note_on channel=1 note=64 velocity=90 time=0
note_off channel=1 note=64 velocity=0 time=0.4044115625
note_on channel=1 note=60 velocity=90 time=0
note_off channel=1 note=60 velocity=0 time=0.4044115625
note_on channel=1 note=57 velocity=90 time=0
note_off channel=1 note=57 velocity=0 time=0.4044115625
note_on channel=1 note=64 velocity=90 time=0
note_off channel=1 note=64 velocity=0 time=0.4044115625
note_on channel=1 note=59 velocity=90 time=0
note_off channel=1 note=59 velocity=0 time=0.20220578125
note_on channel=1 note=60 velocity=90 time=0
note_off channel=1 note=60 velocity=0 time=0.20220578125
note_on channel=1 note=57 velocity=90 time=0
note_off channel=1 note=57 velocity=0 time=0.4044115625
note_on channel=1 note=45 velocity=90 time=0
note_off channel=1 note=45 velocity=0 time=0.4044115625
note_on channel=1 note=47 velocity=90 time=0
note_off channel=1 note=47 velocity=0 time=0.4044115625
note_on channel=1 note=60 velocity=90 time=0
note_off channel=1 note=60 velocity=0 time=0.4044115625
note_on channel=1 note=55 velocity=90 time=0
note_off channel=1 note=55 velocity=0 time=0.4044115625
note_on channel=1 note=52 velocity=90 time=0
note_off channel=1 note=52 velocity=0 time=0.4044115625
note_on channel=1 note=60 velocity=90 time=0
note_off channel=1 note=60 velocity=0 time=0.4044115625
note_on channel=1 note=67 velocity=90 time=0
note_off channel=1 note=67 velocity=0 time=0.4044115625
note_on channel=1 note=59 velocity=90 time=0
note_off channel=1 note=59 velocity=0 time=0.4044115625
note_on channel=1 note=55 velocity=90 time=0
note_off channel=1 note=55 velocity=0 time=0.4044115625
note_on channel=1 note=67 velocity=90 time=0
note_off channel=1 note=67 velocity=0 time=0.4044115625
note_on channel=1 note=67 velocity=70 time=0
note_off channel=1 note=67 velocity=0 time=0.20220578125
note_on channel=1 note=66 velocity=70 time=0
note_off channel=1 note=66 velocity=0 time=0.20220578125
note_on channel=1 note=66 velocity=70 time=0
note_off channel=1 note=66 velocity=0 time=0.4044115625
note_on channel=1 note=66 velocity=70 time=0
note_off channel=1 note=66 velocity=0 time=1.2132346875
note_on channel=1 note=45 velocity=90 time=0
note_off channel=1 note=45 velocity=0 time=0.4044115625
note_on channel=1 note=47 velocity=90 time=0
note_off channel=1 note=47 velocity=0 time=0.4044115625
note_on channel=1 note=48 velocity=90 time=0
note_off channel=1 note=48 velocity=0 time=0.4044115625
note_on channel=1 note=52 velocity=90 time=0
note_off channel=1 note=52 velocity=0 time=0.4044115625
note_on channel=1 note=55 velocity=90 time=0
note_off channel=1 note=55 velocity=0 time=0.4044115625
note_on channel=1 note=60 velocity=90 time=0
note_off channel=1 note=60 velocity=0 time=0.4044115625
note_on channel=1 note=66 velocity=90 time=0
note_off channel=1 note=66 velocity=0 time=0.4044115625
note_on channel=1 note=62 velocity=90 time=0
note_off channel=1 note=62 velocity=0 time=0.4044115625
note_on channel=1 note=57 velocity=90 time=0
note_off channel=1 note=57 velocity=0 time=0.4044115625
note_on channel=1 note=66 velocity=90 time=0
note_off channel=1 note=66 velocity=0 time=0.4044115625
note_on channel=1 note=64 velocity=90 time=0
note_off channel=1 note=64 velocity=0 time=0.4044115625
note_on channel=1 note=60 velocity=90 time=0
note_off channel=1 note=60 velocity=0 time=0.4044115625
note_on channel=1 note=57 velocity=90 time=0
note_off channel=1 note=57 velocity=0 time=0.4044115625
note_on channel=1 note=64 velocity=90 time=0
note_off channel=1 note=64 velocity=0 time=0.4044115625
note_on channel=1 note=59 velocity=90 time=0
note_off channel=1 note=59 velocity=0 time=0.20220578125
note_on channel=1 note=60 velocity=90 time=0
note_off channel=1 note=60 velocity=0 time=0.20220578125
note_on channel=1 note=57 velocity=90 time=0
note_off channel=1 note=57 velocity=0 time=0.4044115625
note_on channel=1 note=45 velocity=90 time=0
note_off channel=1 note=45 velocity=0 time=0.4044115625
note_on channel=1 note=47 velocity=90 time=0
note_off channel=1 note=47 velocity=0 time=0.4044115625
note_on channel=1 note=48 velocity=90 time=0
note_off channel=1 note=48 velocity=0 time=0.4044115625
note_on channel=1 note=52 velocity=90 time=0
note_off channel=1 note=52 velocity=0 time=0.4044115625
note_on channel=1 note=55 velocity=90 time=0
note_off channel=1 note=55 velocity=0 time=0.4044115625
note_on channel=1 note=60 velocity=90 time=0
note_off channel=1 note=60 velocity=0 time=0.4044115625
note_on channel=1 note=50 velocity=90 time=0
note_off channel=1 note=50 velocity=0 time=0.4044115625
note_on channel=1 note=57 velocity=90 time=0
note_off channel=1 note=57 velocity=0 time=0.4044115625
note_on channel=1 note=62 velocity=90 time=0
note_off channel=1 note=62 velocity=0 time=0.4044115625
note_on channel=1 note=66 velocity=90 time=0
note_off channel=1 note=66 velocity=0 time=0.4044115625
note_on channel=1 note=64 velocity=80 time=0
note_off channel=1 note=64 velocity=0 time=0.4044115625
note_on channel=1 note=64 velocity=80 time=0
note_off channel=1 note=64 velocity=0 time=0.4044115625
note_on channel=1 note=64 velocity=80 time=0
note_off channel=1 note=64 velocity=0 time=1.2132346875
