note_on channel=0 note=40 velocity=100 time=0
note_on channel=0 note=55 velocity=100 time=0.44
note_off channel=0 note=40 velocity=0 time=0.005
note_on channel=0 note=59 velocity=100 time=0.435
note_off channel=0 note=55 velocity=0 time=0.005
note_on channel=0 note=64 velocity=100 time=0.435
note_off channel=0 note=59 velocity=0 time=0.005
note_on channel=0 note=59 velocity=100 time=0.435
note_off channel=0 note=64 velocity=0 time=0.005
note_on channel=0 note=55 velocity=100 time=0.435
note_off channel=0 note=59 velocity=0 time=0.005
note_on channel=0 note=40 velocity=100 time=0.435
note_off channel=0 note=55 velocity=0 time=0.005
note_on channel=0 note=55 velocity=100 time=0.435
note_off channel=0 note=40 velocity=0 time=0.005
note_on channel=0 note=59 velocity=100 time=0.435
note_off channel=0 note=55 velocity=0 time=0.005
note_on channel=0 note=64 velocity=100 time=0.435
note_off channel=0 note=59 velocity=0 time=0.005
note_on channel=0 note=59 velocity=100 time=0.435
note_off channel=0 note=64 velocity=0 time=0.005
note_on channel=0 note=55 velocity=100 time=0.435
note_off channel=0 note=59 velocity=0 time=0.005
note_on channel=0 note=40 velocity=100 time=0.435
note_off channel=0 note=55 velocity=0 time=0.005
note_on channel=0 note=55 velocity=100 time=0.4375
note_off channel=0 note=40 velocity=0 time=0.0025
note_on channel=0 note=59 velocity=100 time=0.4375
note_off channel=0 note=55 velocity=0 time=0.0025
note_on channel=0 note=64 velocity=100 time=0.4375
note_off channel=0 note=59 velocity=0 time=0.0025
note_on channel=0 note=59 velocity=100 time=0.4375
note_off channel=0 note=64 velocity=0 time=0.0025
note_on channel=0 note=55 velocity=100 time=0.4375
note_off channel=0 note=59 velocity=0 time=0.0025
note_on channel=0 note=40 velocity=100 time=0.4375
note_off channel=0 note=55 velocity=0 time=0.0025
note_on channel=0 note=55 velocity=100 time=0.44
note_off channel=0 note=40 velocity=0 time=0
note_on channel=0 note=59 velocity=100 time=0.44
note_off channel=0 note=55 velocity=0 time=0.005
note_on channel=0 note=64 velocity=100 time=0.435
note_off channel=0 note=59 velocity=0 time=0.005
note_on channel=0 note=59 velocity=100 time=0.435
note_off channel=0 note=64 velocity=0 time=0.005
note_on channel=0 note=55 velocity=100 time=0.435
note_off channel=0 note=59 velocity=0 time=0.005
note_on channel=0 note=40 velocity=100 time=0.435
note_off channel=0 note=55 velocity=0 time=0.005
note_on channel=0 note=55 velocity=100 time=0.42
note_off channel=0 note=40 velocity=0 time=0.02
note_on channel=0 note=59 velocity=100 time=0.42
note_off channel=0 note=55 velocity=0 time=0.005
note_on channel=0 note=64 velocity=100 time=0.435
note_off channel=0 note=59 velocity=0 time=0.005
note_on channel=0 note=59 velocity=100 time=0.435
note_off channel=0 note=64 velocity=0 time=0.005
note_on channel=0 note=55 velocity=100 time=0.435
note_off channel=0 note=59 velocity=0 time=0.005
note_on channel=0 note=40 velocity=100 time=0.435
note_off channel=0 note=55 velocity=0 time=0.005
note_on channel=0 note=55 velocity=100 time=0.435
note_off channel=0 note=40 velocity=0 time=0.005
note_on channel=0 note=59 velocity=100 time=0.435
note_off channel=0 note=55 velocity=0 time=0.005
note_on channel=0 note=64 velocity=100 time=0.435
note_off channel=0 note=59 velocity=0 time=0.005
note_on channel=0 note=59 velocity=100 time=0.435
note_off channel=0 note=64 velocity=0 time=0.005
note_on channel=0 note=55 velocity=100 time=0.435
note_off channel=0 note=59 velocity=0 time=0.005
note_on channel=0 note=40 velocity=100 time=0.435
note_off channel=0 note=55 velocity=0 time=0.005
note_on channel=0 note=55 velocity=100 time=0.435
note_off channel=0 note=40 velocity=0 time=0.005
note_on channel=0 note=59 velocity=100 time=0.435
note_off channel=0 note=55 velocity=0 time=0.005
note_on channel=0 note=64 velocity=100 time=0.435
note_off channel=0 note=59 velocity=0 time=0.005
note_on channel=0 note=59 velocity=100 time=0.435
note_off channel=0 note=64 velocity=0 time=0.005
note_on channel=0 note=55 velocity=100 time=0.435
note_off channel=0 note=59 velocity=0 time=0.005
note_on channel=0 note=40 velocity=100 time=0.435
note_off channel=0 note=55 velocity=0 time=0.005
note_on channel=0 note=55 velocity=100 time=0.44
note_off channel=0 note=40 velocity=0 time=0
note_on channel=0 note=59 velocity=100 time=0.44
note_off channel=0 note=55 velocity=0 time=0.005
note_on channel=0 note=64 velocity=100 time=0.435
note_off channel=0 note=59 velocity=0 time=0.005
note_on channel=0 note=59 velocity=100 time=0.435
note_off channel=0 note=64 velocity=0 time=0.005
note_on channel=0 note=55 velocity=100 time=0.435
note_off channel=0 note=59 velocity=0 time=0.005
note_on channel=0 note=40 velocity=100 time=0.435
note_off channel=0 note=55 velocity=0 time=0.005
note_off channel=0 note=40 velocity=0 time=0.44
